# xmcd CD database file
#
# Track frame offsets:
#	150
#	18874
#	42692
#	63592
#	83181
#	103589
#	123484
#	151120
#	169642
#	185151
#	202059
#	223366
#	237050
#	247042
#	269419
#
# Disc length: 3814 seconds
#
# Revision: 0
# Processed by: cddbd v1.5.2PL0 Copyright (c) Steve Scherf et al.
# Submitted via: CDex 1.70beta2
#
DISCID=dd0ee40f
DTITLE=Blind Curve - Blind Curve
DYEAR=2005
DGENRE=Jazz
TTITLE0=Just Another Lover
TTITLE1=Militant Agnostic
TTITLE2=More Than Before
TTITLE3=One Soul
TTITLE4=Someone Else's Girl
TTITLE5=All Over Town
TTITLE6=Amor Me Perdi
TTITLE7=Mad As A Hatter
TTITLE8=Jewels In The Night Sky
TTITLE9=Compromise
TTITLE10=No Love
TTITLE11=Without Your Love
TTITLE12=The Natives Are Restless
TTITLE13=Pitchin' A Roll
TTITLE14=To You
EXTD=YEAR: 2005
EXTT0=
EXTT1=
EXTT2=
EXTT3=
EXTT4=
EXTT5=
EXTT6=
EXTT7=
EXTT8=
EXTT9=
EXTT10=
EXTT11=
EXTT12=
EXTT13=
EXTT14=
PLAYORDER=
